<svg width="26" height="26" viewBox="0 0 26 26" fill="none" xmlns="http://www.w3.org/2000/svg">
<path d="M14.3203 13C14.3203 12.2708 13.7292 11.6797 13 11.6797C12.2708 11.6797 11.6797 12.2708 11.6797 13C11.6797 13.7292 12.2708 14.3203 13 14.3203C13.7292 14.3203 14.3203 13.7292 14.3203 13Z" fill="#E7E9EA"/>
<path d="M18.8906 13C18.8906 12.2708 18.2995 11.6797 17.5703 11.6797C16.8411 11.6797 16.25 12.2708 16.25 13C16.25 13.7292 16.8411 14.3203 17.5703 14.3203C18.2995 14.3203 18.8906 13.7292 18.8906 13Z" fill="#E7E9EA"/>
<path d="M9.75 13C9.75 12.2708 9.15888 11.6797 8.42969 11.6797C7.7005 11.6797 7.10938 12.2708 7.10938 13C7.10938 13.7292 7.7005 14.3203 8.42969 14.3203C9.15888 14.3203 9.75 13.7292 9.75 13Z" fill="#E7E9EA"/>
<path fill-rule="evenodd" clip-rule="evenodd" d="M13 26C5.82272 26 0 20.1773 0 13C0 5.82272 5.82272 0 13 0C20.1773 0 26 5.82272 26 13C26 20.1773 20.1773 26 13 26ZM2 13C2 19.0727 6.92728 24 13 24C19.0727 24 24 19.0727 24 13C24 6.92728 19.0727 2 13 2C6.92728 2 2 6.92728 2 13Z" fill="#E7E9EA"/>
</svg>
