<svg width="22" height="18" viewBox="0 0 22 18" fill="none" xmlns="http://www.w3.org/2000/svg">
<g clip-path="url(#clip0_9_263)">
<path d="M18.425 0C20.3994 0 22 1.54043 22 3.44065V14.5593C22 16.4596 20.3994 18 18.425 18H3.575C1.60058 18 0 16.4596 0 14.5593V3.44065C0 1.54043 1.60058 0 3.575 0H18.425ZM18.425 1.58799H3.575C2.51185 1.58799 1.65 2.41746 1.65 3.44065V14.5593C1.65 15.5825 2.51185 16.412 3.575 16.412H18.425C19.4881 16.412 20.35 15.5825 20.35 14.5593V3.44065C20.35 2.41746 19.4881 1.58799 18.425 1.58799ZM6.61606 5.6865C7.27265 5.6865 7.73688 5.77259 8.26845 6.01827C8.61073 6.17646 8.75495 6.57174 8.59058 6.90115C8.42621 7.23057 8.0155 7.36937 7.67322 7.21118C7.34341 7.05875 7.07962 7.00983 6.61606 7.00983C5.66268 7.00983 4.96214 7.8529 4.96214 8.99203C4.96214 10.1322 5.6636 10.9781 6.61606 10.9781C7.08755 10.9781 7.48668 10.7876 7.69433 10.4479L7.7011 10.4321V9.65501L7.28774 9.6557C6.94256 9.6557 6.6568 9.41087 6.6077 9.09181L6.60024 8.99403C6.60024 8.66183 6.85462 8.3868 7.18615 8.33954L7.28774 8.33237H8.3895C8.73468 8.33237 9.02044 8.57719 9.06955 8.89626L9.077 8.99403L9.07553 10.6325L9.06854 10.6911L9.04526 10.7862L9.02272 10.8446C8.60867 11.7869 7.65772 12.3014 6.61606 12.3014C4.82744 12.3014 3.58714 10.8058 3.58714 8.99203C3.58714 7.17891 4.82723 5.6865 6.61606 5.6865ZM11.6918 5.81565C12.037 5.81565 12.3228 6.06048 12.3719 6.37954L12.3793 6.47732V11.5188C12.3793 11.8842 12.0715 12.1805 11.6918 12.1805C11.3467 12.1805 11.0609 11.9356 11.0118 11.6166L11.0043 11.5188V6.47732C11.0043 6.11189 11.3121 5.81565 11.6918 5.81565ZM14.9872 5.81565L17.1844 5.82296C17.5641 5.82422 17.8708 6.12148 17.8695 6.4869C17.8683 6.81911 17.6129 7.09328 17.2812 7.13944L17.1796 7.14628L15.6717 7.14068V8.99758L16.907 8.99849C17.2522 8.99849 17.5379 9.24331 17.587 9.56237L17.5945 9.66015C17.5945 9.99236 17.3401 10.2674 17.0086 10.3146L16.907 10.3218L15.6717 10.3209L15.6724 11.5018C15.6724 11.834 15.418 12.109 15.0865 12.1563L14.9849 12.1634C14.6397 12.1634 14.3539 11.9186 14.3048 11.5995L14.2974 11.5018V6.47503C14.2986 6.14283 14.5539 5.86865 14.8856 5.82249L14.9872 5.81565Z"/>
</g>
<defs>
<clipPath id="clip0_9_263">
<rect width="22" height="18" fill="white"/>
</clipPath>
</defs>
</svg>
